<svg xmlns="http://www.w3.org/2000/svg" version="1.1" viewBox="-5.0 -10.0 110.0 135.0">
 <path d="m12.086 53.57v0.91016l0.003906 0.26953 0.011718 0.26953 0.007813 0.26172 0.015625 0.26953 0.011719 0.22266 2.1484-0.12109-0.011718-0.21094-0.015626-0.25-0.011718-0.25391-0.003906-0.25391-0.007813-0.25391v-0.25781l-0.003906-0.25391v-0.35547zm40.641-14.156c0-0.59375 0.48047-1.0742 1.0742-1.0742s1.0742 0.48047 1.0742 1.0742v13.988c0.003906 0.28516-0.10938 0.55859-0.30859 0.75781-0.20312 0.20312-0.47656 0.31641-0.76172 0.31641h-11.473c-0.29297 0.011719-0.57422-0.097656-0.78125-0.30078-0.21094-0.20312-0.32812-0.48047-0.32812-0.77344 0-0.28906 0.11719-0.56641 0.32812-0.76953 0.20703-0.20312 0.48828-0.3125 0.78125-0.30469h10.395zm-29.254 12.914h7.6406c0.58203 0.019531 1.043 0.49609 1.043 1.0742 0 0.58203-0.46094 1.0586-1.043 1.0742h-7.6406c0.26953 7.6758 3.4414 14.965 8.8711 20.395 5.4297 5.4297 12.719 8.6016 20.395 8.8711v-7.6445c0-0.59375 0.48047-1.0742 1.0742-1.0742s1.0742 0.48047 1.0742 1.0742v7.6406c7.6758-0.26953 14.961-3.4375 20.395-8.8711 5.4297-5.4297 8.5977-12.719 8.8672-20.391h-7.6484c-0.28906 0.007813-0.57031-0.10156-0.78125-0.30469-0.20703-0.20312-0.32422-0.48047-0.32422-0.76953 0-0.29297 0.11719-0.57031 0.32422-0.77344 0.21094-0.20312 0.49219-0.3125 0.78125-0.30078h7.6367c-0.26953-7.6758-3.4375-14.965-8.8711-20.395-5.4297-5.4297-12.715-8.6016-20.391-8.8711v7.6367c0 0.59375-0.48438 1.0742-1.0742 1.0742-0.59375 0-1.0781-0.48047-1.0781-1.0742v-7.6289c-7.6719 0.26953-14.961 3.4375-20.391 8.8672-5.4336 5.4336-8.6016 12.719-8.8711 20.395zm30.336-31.43c9.0312 0.015624 17.648 3.7891 23.781 10.418 6.1328 6.6289 9.2266 15.512 8.5391 24.516-0.6875 9.0039-5.0938 17.312-12.164 22.934-7.0664 5.6211-16.156 8.043-25.082 6.6836-8.9297-1.3555-16.887-6.3711-21.965-13.84-5.0742-7.4688-6.8125-16.711-4.793-25.512h-16.562c-0.59375 0-1.0742-0.48047-1.0781-1.0742v-35.418c0-0.28516 0.11328-0.55859 0.3125-0.76172 0.20312-0.20312 0.47656-0.31641 0.76562-0.31641h4.7695v-2.5625c-0.007812-0.28906 0.097657-0.57422 0.30078-0.78125 0.20313-0.20703 0.48047-0.32812 0.77344-0.32812 0.28906 0 0.57031 0.12109 0.76953 0.32812 0.20312 0.20703 0.3125 0.49219 0.30469 0.78125v2.5625h6.8008v-2.5625c0-0.59375 0.48438-1.0781 1.0781-1.0781s1.0781 0.48438 1.0781 1.0781v2.5625h6.8008v-2.5625c-0.007812-0.28906 0.10156-0.57422 0.30078-0.78125 0.20313-0.20703 0.48047-0.32812 0.77344-0.32812 0.28906 0 0.57031 0.12109 0.76953 0.32812 0.20312 0.20703 0.3125 0.49219 0.30469 0.78125v2.5625h6.8008v-2.5625c0-0.59375 0.48438-1.0781 1.0781-1.0781s1.0781 0.48438 1.0781 1.0781v2.5625h4.7695c0.28516 0 0.55859 0.11328 0.75781 0.31641 0.20312 0.19922 0.3125 0.47266 0.3125 0.75781v12.453c2.8086-0.76953 5.7109-1.1602 8.6211-1.1602zm-31.113 23.051c3.0234-9.9062 10.574-17.785 20.34-21.227v-3.7383h-36.402v24.965zm16.645-33.262v2.5664l0.003906-0.003906c0 0.59375-0.48438 1.0781-1.0781 1.0781s-1.0781-0.48438-1.0781-1.0781v-2.5664h-6.8008v2.5664c0.007812 0.28906-0.10156 0.57031-0.30469 0.78125-0.19922 0.20703-0.48047 0.32812-0.76953 0.32812-0.29297 0-0.57031-0.12109-0.77344-0.32812-0.19922-0.21094-0.30859-0.49219-0.30078-0.78125v-2.5664h-6.8008v2.5664c0 0.59375-0.48438 1.0781-1.0781 1.0781s-1.0781-0.48438-1.0781-1.0781v-2.5664h-6.8008v2.5664c0.007812 0.28906-0.10156 0.57031-0.30469 0.78125-0.19922 0.20703-0.48047 0.32812-0.76953 0.32812-0.29297 0-0.57031-0.12109-0.77344-0.32812-0.20312-0.21094-0.30859-0.49219-0.30078-0.78125v-2.5664h-3.6992v6.1523h36.402v-6.1523zm-27.008 47.289 0.023438 0.21094 0.03125 0.26562 0.03125 0.25781 0.035156 0.25781 0.035156 0.26562 0.035157 0.25781 0.039062 0.25781 0.042969 0.25781 0.023437 0.14844 2.1172-0.35156-0.019532-0.13672-0.039062-0.24609-0.035156-0.24219-0.035156-0.25-0.03125-0.25-0.035157-0.24609-0.0625-0.5-0.019531-0.21094zm0.71094 4.3555 0.050781 0.23828 0.0625 0.25391 0.054688 0.25391 0.125 0.5 0.066406 0.25391 0.13281 0.5 0.042969 0.14844 2.0742-0.57422-0.042969-0.13672-0.0625-0.23438-0.0625-0.23828-0.0625-0.23438-0.0625-0.23828-0.10938-0.47656-0.058594-0.24219-0.050781-0.23828zm1.168 4.2578 0.066406 0.19141 0.082031 0.24609 0.085937 0.24219 0.082032 0.23828 0.089844 0.23828 0.085937 0.23828 0.17969 0.47656 0.074219 0.19922 2-0.78906-0.078125-0.1875-0.085937-0.22266-0.082031-0.22656-0.085938-0.22266-0.24609-0.67969-0.074218-0.22656-0.066407-0.19922zm1.6172 4.1055 0.15234 0.33984 0.11328 0.23047 0.10547 0.22656 0.11328 0.22656 0.11328 0.22266 0.11328 0.22656 0.11719 0.22266 0.14844 0.28516 1.8984-1.0078-0.13281-0.25781-0.11328-0.21094-0.21094-0.42188-0.10547-0.21875-0.10547-0.21094-0.10547-0.21875-0.15234-0.33984zm2.0352 3.9102 0.13281 0.21875 0.12891 0.21094 0.26562 0.42188 0.13672 0.21094 0.13281 0.21094 0.27344 0.42188 0.10547 0.16406 1.7891-1.1953-0.10547-0.15234-0.13281-0.19922-0.12109-0.17969-0.13281-0.20312-0.12891-0.20312-0.12109-0.20312-0.125-0.20312-0.12109-0.20312-0.12109-0.21094zm2.4531 3.6758 0.21094 0.28516 0.14844 0.19922 0.15625 0.19922 0.15234 0.19922 0.15625 0.19141 0.15234 0.19922 0.15625 0.19531 0.22266 0.26953 1.6523-1.375-0.21094-0.25-0.14844-0.1875-0.14844-0.18359-0.44531-0.5625-0.14062-0.1875-0.20312-0.27344zm2.8125 3.4023 0.13281 0.14453 0.34375 0.36719 0.34375 0.35938 0.17969 0.18359 0.17969 0.17578 0.17969 0.17188 0.18359 0.18359 1.4922-1.543-0.67187-0.67187-0.16016-0.17188-0.16797-0.17187-0.16406-0.16797-0.16016-0.17969-0.13281-0.14062zm3.1523 3.0781 0.41016 0.35156 0.1875 0.16016 0.19141 0.16406 0.19141 0.15625 0.19531 0.16406 0.19141 0.15625 0.19922 0.15625 0.12891 0.10547 1.332-1.6914-0.12109-0.097656-0.18359-0.14844-0.1875-0.14844-0.55078-0.45703-0.17969-0.15234-0.18359-0.15625-0.21094-0.18359zm3.4648 2.7383 0.11328 0.078125 0.20312 0.14062 0.63281 0.42188 0.63281 0.41016 0.26953 0.16797 1.1367-1.8242-0.24219-0.15234-0.20313-0.13281-0.19922-0.13281-0.19922-0.12891-0.20703-0.13672-0.19922-0.13281-0.19922-0.13672-0.19531-0.13281-0.10547-0.078125zm3.7383 2.3555 0.21094 0.11719 0.22266 0.12109 0.44531 0.23438 0.22266 0.12109 0.22266 0.11328 0.22266 0.11719 0.39844 0.19922 0.94922-1.9297-0.58594-0.29297-0.21094-0.11328-0.21484-0.12109-0.42188-0.22656-0.42187-0.23437zm3.957 1.9414 0.12109 0.050781 0.23438 0.10547 0.23438 0.097656 0.23828 0.097657 0.23438 0.089843 0.71484 0.26953 0.27344 0.10547 0.73828-2.0234-0.25391-0.097656-0.22656-0.082032-0.22266-0.085937-0.22266-0.089844-0.22656-0.085937-0.22266-0.089844-0.21875-0.089844-0.34375-0.14844zm4.1445 1.5156 0.30078 0.089844 0.5 0.14062 0.24609 0.070312 0.25 0.066407 0.25 0.070312 0.25 0.0625 0.33984 0.085938 0.50781-2.0898-0.30859-0.082032-0.23828-0.0625-0.23438-0.0625-0.23828-0.066406-0.46875-0.13281-0.23438-0.070313-0.28906-0.085937zm4.2812 1.0625 0.29297 0.054688 0.25391 0.050781 0.25781 0.042969 0.25391 0.046874 0.25781 0.042969 0.25781 0.039063 0.26172 0.042968 0.33984 0.046876 0.28516-2.1289-0.30859-0.046875-0.25-0.035156-0.24219-0.042969-0.24609-0.039062-0.24609-0.042969-0.24219-0.039062-0.24609-0.046876-0.28516-0.050781zm4.375 0.60547 0.35156 0.03125 0.26172 0.019531 0.26562 0.015625 0.26953 0.015625 0.26562 0.015625 0.26953 0.015625 0.26562 0.011719 0.25391 0.007812 0.066407-2.1523h-0.23828l-0.25391-0.007813-0.25-0.015625-0.25391-0.007812-0.25391-0.015626-0.25-0.019531-0.25391-0.015625-0.33984-0.03125zm4.4102 0.14062h0.49609l0.26953-0.007813 0.26953-0.011719 0.26562-0.015624 0.26953-0.015626 0.53125-0.03125 0.11328-0.011718-0.16406-2.1445-0.35156 0.023438-0.25391 0.015625-0.25 0.007813-0.25391 0.015624-0.25391 0.007813-0.25391 0.011719h-0.48047zm4.3984-0.31641 0.32422-0.042969 0.26172-0.035157 0.25781-0.035156 0.25781-0.042968 0.25781-0.039063 0.25781-0.042969 0.25781-0.046875 0.30469-0.050781-0.38672-2.1211-0.27734 0.046875-0.24609 0.042969-0.25 0.039062-0.24609 0.042969-0.24609 0.035157-0.25 0.035156-0.24609 0.035156-0.31641 0.042969zm4.3438-0.77734 0.32812-0.082032 0.25391-0.0625 0.25-0.066406 0.25-0.0625 0.25-0.070312 0.25-0.066406 0.25-0.070313 0.30469-0.085937-0.60938-2.0625-0.28516 0.082031-0.23438 0.066406-0.23828 0.066406-0.23437 0.0625-0.23828 0.0625-0.23438 0.0625-0.23828 0.0625-0.31641 0.074219zm4.2305-1.2383 0.27734-0.097656 0.23828-0.089844 0.23828-0.085937 0.95312-0.35938 0.23438-0.097656 0.12109-0.050782-0.82031-2.0078-0.33203 0.13672-0.22266 0.085937-0.22656 0.089844-0.22266 0.085938-0.22656 0.082031-0.22266 0.085937-0.22656 0.082032-0.26562 0.097656zm4.0859-1.6836 0.17969-0.085938 0.45312-0.22656 0.22266-0.11328 0.22656-0.11719 0.22266-0.11328 0.22266-0.12109 0.22266-0.11719 0.21094-0.11328-1.0273-1.8906-0.19922 0.10547-0.63281 0.33984-0.21875 0.10547-0.42188 0.21094-0.21875 0.10547-0.17188 0.082031zm3.875-2.1055 0.27734-0.16797 0.21094-0.13281 0.84375-0.54688 0.52734-0.35156-1.2344-1.7812-0.28906 0.19141-0.19141 0.13672-0.20312 0.12891-0.39844 0.26563-0.20312 0.12891-0.20312 0.125-0.26562 0.16406zm3.6367-2.5039 0.13672-0.10547 0.19922-0.15625 0.19922-0.15234 0.19141-0.15625 0.19531-0.15625 0.19922-0.16406 0.19141-0.15625 0.1875-0.16406 0.21094-0.18359-1.4023-1.6367-0.19531 0.16797-0.55078 0.45703-0.18359 0.14844-0.375 0.29688-0.18359 0.14844-0.14453 0.10547zm3.3477-2.8672 0.19531-0.1875 0.18359-0.17188 0.17969-0.17578 0.17969-0.17188 0.17188-0.17578 0.17969-0.18359 0.34375-0.35938 0.13281-0.13672-1.5703-1.4727-0.11719 0.12109-0.16406 0.17188-0.16797 0.17188-0.67188 0.67188-0.17187 0.16406-0.18359 0.17969zm3.0312-3.2109 0.23047-0.27344 0.16016-0.19531 0.15625-0.19141 0.15625-0.19531 0.15625-0.19922 0.15234-0.19141 0.15625-0.19922 0.21094-0.27344-1.7109-1.3008-0.19922 0.25391-0.14453 0.1875-0.14844 0.1875-0.15234 0.18359-0.14844 0.1875-0.30469 0.36719-0.22266 0.26562zm2.6758-3.5117 0.11328-0.16797 0.14062-0.21094 0.54688-0.84375 0.26562-0.42188 0.12891-0.21484-1.8398-1.1172-0.11719 0.19531-0.12891 0.20312-0.125 0.19922-0.125 0.20312-0.13281 0.19922-0.125 0.19922-0.26562 0.39844-0.11719 0.16797zm2.293-3.7617 0.15234-0.28516 0.11719-0.22266 0.11719-0.22656 0.11328-0.22266 0.11328-0.22656 0.11328-0.22266 0.11328-0.22656 0.15625-0.33594-1.9453-0.91016-0.14844 0.31641-0.10547 0.21875-0.31641 0.63281-0.22656 0.42188-0.14062 0.27344zm1.8789-4 0.082031-0.19922 0.089844-0.23437 0.097656-0.23828 0.089844-0.23828 0.085937-0.23828 0.089844-0.23828 0.17188-0.47656 0.066406-0.19922-2.0312-0.69922-0.066406 0.18359-0.16406 0.45312-0.082032 0.22266-0.085937 0.22656-0.17188 0.44531-0.089844 0.22656-0.082031 0.19141zm1.4492-4.1719 0.039062-0.13672 0.066406-0.25 0.070313-0.25 0.13281-0.5 0.0625-0.25391 0.125-0.5 0.054688-0.25-2.0938-0.48438-0.054688 0.23438-0.054687 0.23828-0.0625 0.23828-0.054688 0.23438-0.066406 0.23828-0.0625 0.23438-0.066406 0.23828-0.066406 0.23438-0.042969 0.14453zm0.99219-4.2969 0.023437-0.13672 0.042969-0.25391 0.046875-0.25781 0.035156-0.25781 0.039063-0.25781 0.035156-0.25781 0.035157-0.26562 0.035156-0.25781 0.03125-0.22656-2.1406-0.26172-0.023438 0.21875-0.03125 0.24609-0.070312 0.5-0.035157 0.24219-0.042968 0.24609-0.035156 0.24219-0.046876 0.25-0.019531 0.13281zm0.53516-4.3828 0.007813-0.19922 0.019531-0.26953 0.007813-0.26562 0.015624-0.26953 0.007813-0.26172 0.011719-0.26953 0.003906-0.26953 0.011719-0.26953v-0.125l-2.1445-0.042969-0.007813 0.375v0.25391l-0.023437 0.50781-0.007813 0.25-0.03125 0.50781-0.015625 0.20313zm0.070313-4.4023-0.015625-0.35156-0.015625-0.26953-0.007813-0.26562-0.019531-0.26953-0.015625-0.26562-0.039063-0.53125-0.019531-0.25391-2.1445 0.1875 0.019531 0.24609 0.039063 0.5 0.03125 0.50781 0.015625 0.25 0.007812 0.25391 0.015625 0.33984zm-0.39062-4.418-0.027344-0.16797-0.039063-0.25781-0.035156-0.25781-0.046875-0.26172-0.042969-0.25391-0.09375-0.51563-0.050781-0.25391-0.03125-0.19922-2.1055 0.42187 0.035157 0.1875 0.046875 0.24219 0.046875 0.23828 0.042969 0.24609 0.046874 0.25 0.035157 0.24609 0.042969 0.24219 0.035156 0.24609 0.027344 0.16797zm-0.85547-4.3281-0.042969-0.17188-0.13281-0.5-0.070313-0.25-0.066406-0.25-0.070312-0.24219-0.074219-0.25-0.070313-0.24219-0.066406-0.21875-2.0586 0.64062 0.066406 0.20312 0.066407 0.23438 0.070312 0.23438 0.13281 0.46875 0.066406 0.23828 0.0625 0.23438 0.066406 0.23828 0.039063 0.16797zm-1.3047-4.2109-0.046874-0.11328-0.085938-0.23828-0.089844-0.23828-0.097656-0.23828-0.089844-0.23438-0.097656-0.23828-0.19531-0.46875-0.12109-0.28516-1.9727 0.86328 0.11328 0.25781 0.089843 0.21875 0.26953 0.66797 0.085937 0.22656 0.085938 0.22266 0.12891 0.33984zm-1.7461-4.0469-0.12891-0.25-0.11328-0.22266-0.11719-0.22656-0.11719-0.22266-0.12109-0.21875-0.11719-0.22266-0.12109-0.22266-0.12109-0.21875-0.082032-0.14062-1.8672 1.0586 0.070312 0.12891 0.23438 0.42188 0.45312 0.84375 0.22266 0.44531zm-2.1758-3.8438-0.074219-0.12109-0.41016-0.63281-0.14062-0.21094-0.13672-0.21094-0.14062-0.21094-0.14844-0.20312-0.17969-0.25391-1.7422 1.2617 0.16406 0.22656 0.13672 0.19531 0.13281 0.19922 0.13672 0.19922 0.26562 0.39844 0.125 0.19922 0.13281 0.19922 0.074219 0.12109zm-2.5586-3.6016-0.14844-0.1875-0.3125-0.38281-0.16016-0.19531-0.16406-0.19141-0.15625-0.19531-0.16797-0.1875-0.16016-0.1875-0.13672-0.15625-1.6055 1.4258 0.125 0.14844 0.15234 0.17969 0.15625 0.18359 0.15234 0.17969 0.45703 0.55078 0.14844 0.18359 0.15234 0.19141zm-2.9219-3.2969-0.23828-0.24609-0.17969-0.17188-0.17969-0.17969-0.18359-0.17188-0.17969-0.17188-0.36719-0.34375-0.26953-0.25-1.4492 1.5898 0.25391 0.23438 0.17188 0.16016 0.17188 0.16406 0.16797 0.16797 0.17188 0.16016 0.33594 0.33594 0.23047 0.22656zm-3.2617-2.9805-0.13672-0.11328-0.19531-0.15625-0.19141-0.15625-0.19922-0.15234-0.19922-0.15625-0.39844-0.30469-0.20313-0.14844-0.22266-0.16797-1.2617 1.7383 0.57812 0.43359 0.19531 0.14844 0.18359 0.14844 0.375 0.29688 0.18359 0.14844 0.13672 0.11328zm-3.543-2.6172-0.23438-0.15234-0.42188-0.27344-0.42188-0.26562-0.21875-0.13281-0.21094-0.12891-0.21875-0.13281-0.14062-0.085938-1.0938 1.8633 0.13281 0.082031 0.60938 0.36328 0.20312 0.125 0.40625 0.25781 0.42188 0.28125zm-3.8125-2.2305-0.12891-0.066406-0.22656-0.11719-0.22266-0.11328-0.22656-0.11328-0.22656-0.10547-0.23047-0.11328-0.45312-0.21094-0.26953-0.12109-0.875 1.9648 0.24609 0.11328 0.4375 0.21094 0.21094 0.10547 0.21875 0.10547 0.42187 0.21094 0.21875 0.10547 0.12891 0.066406zm-4.0234-1.8125-0.27734-0.10547-0.47656-0.17969-0.47656-0.17188-0.24219-0.082031-0.23828-0.082032-0.35938-0.12109-0.66406 2.0469 0.33594 0.11328 0.22656 0.074219 0.67969 0.24609 0.22266 0.082031 0.22656 0.085937 0.26953 0.10547zm-4.1953-1.3828-0.22656-0.0625-0.25-0.0625-0.25-0.066406-0.25391-0.0625-0.25-0.0625-0.25391-0.0625-0.25391-0.054688-0.25-0.054688-0.15625-0.03125-0.44141 2.1055 0.14062 0.03125 0.23828 0.050781 0.23828 0.058594 0.47656 0.10938 0.23828 0.0625 0.23438 0.0625 0.23828 0.058594 0.23047 0.0625zm-4.3164-0.92188-0.23438-0.035157-0.25781-0.042968-0.25781-0.035156-0.52344-0.070313-0.26172-0.03125-0.26562-0.03125-0.25781-0.03125-0.125-0.015625-0.21875 2.1406 0.35938 0.039063 0.75 0.09375 0.24609 0.035156 0.25 0.035156 0.24609 0.035156 0.23438 0.035156zm-4.3906-0.45703-0.31641-0.015626-0.53906-0.023437h-0.53516l-0.26953-0.003906h-0.53906v2.1484l0.25391 0.003906 0.26172 0.003907h0.25781l0.50781 0.007812 0.25391 0.007813 0.25391 0.011718 0.31641 0.015626z"/>
<text x="0.0" y="117.5" font-size="5.0" font-weight="bold" font-family="Arbeit Regular, Helvetica, Arial-Unicode, Arial, Sans-serif" fill="#000000">Created by Adinda Diah Pramesti</text><text x="0.0" y="122.5" font-size="5.0" font-weight="bold" font-family="Arbeit Regular, Helvetica, Arial-Unicode, Arial, Sans-serif" fill="#000000">from Noun Project</text></svg>